<svg width="22" height="22" viewBox="0 0 22 22" fill="none" xmlns="http://www.w3.org/2000/svg">
<path d="M16.2732 7.23327C16.2732 5.79465 15.7017 4.41494 14.6845 3.39768C13.6672 2.38042 12.2875 1.80893 10.8489 1.80893C9.41026 1.80893 8.03056 2.38042 7.0133 3.39768C5.99603 4.41494 5.42454 5.79465 5.42454 7.23327C5.42454 13.5617 2.71237 15.3698 2.71237 15.3698H18.9854C18.9854 15.3698 16.2732 13.5617 16.2732 7.23327Z" stroke="black" stroke-width="2.16974" stroke-linecap="round" stroke-linejoin="round"/>
<path d="M12.4134 18.9857C12.2545 19.2597 12.0263 19.4871 11.7518 19.6452C11.4774 19.8033 11.1662 19.8865 10.8494 19.8865C10.5326 19.8865 10.2214 19.8033 9.94693 19.6452C9.67245 19.4871 9.44431 19.2597 9.28537 18.9857" stroke="black" stroke-width="2.16974" stroke-linecap="round" stroke-linejoin="round"/>
</svg>
