<svg width="29" height="29" viewBox="0 0 29 29" fill="none" xmlns="http://www.w3.org/2000/svg">
<path d="M26.8876 5.94317L26.9089 5.91722L20.8037 0.97196L18.8805 3.34385L22.0354 5.89891C21.2528 6.3745 20.6313 7.07455 20.2519 7.90805C19.8724 8.74155 19.7525 9.66993 19.9077 10.5725C20.1367 11.9446 21.0815 13.1306 22.3041 13.7945C23.6701 14.5379 24.8683 14.4692 25.9336 14.0906L25.9107 23.5263C25.9126 23.7791 25.8514 24.0283 25.7327 24.2514C25.614 24.4745 25.4415 24.6645 25.2309 24.8043C25.0203 24.944 24.7781 25.0289 24.5264 25.0515C24.2747 25.0741 24.0213 25.0336 23.7892 24.9336C23.6074 24.8558 23.4425 24.7433 23.3038 24.6024C23.1627 24.461 23.0508 24.2932 22.9746 24.1086C22.8984 23.9239 22.8593 23.7261 22.8596 23.5263L22.8947 20.4737C22.8963 19.8729 22.7788 19.2778 22.549 18.7226C22.3193 18.1675 21.9818 17.6634 21.5562 17.2394C21.1309 16.8133 20.6259 16.4752 20.0699 16.2444C19.5138 16.0137 18.9178 15.8949 18.3158 15.8947H16.7895V3.68422C16.7895 2.87461 16.4679 2.09817 15.8954 1.52569C15.3229 0.953207 14.5465 0.631592 13.7368 0.631592H3.05263C2.24302 0.631592 1.46657 0.953207 0.894095 1.52569C0.321615 2.09817 0 2.87461 0 3.68422V25.0526C0 25.8623 0.321615 26.6387 0.894095 27.2112C1.46657 27.7837 2.24302 28.1053 3.05263 28.1053H13.7368C14.5465 28.1053 15.3229 27.7837 15.8954 27.2112C16.4679 26.6387 16.7895 25.8623 16.7895 25.0526V18.9474H18.3158C18.5234 18.9474 18.7233 18.9886 18.9126 19.0664C19.2758 19.2255 19.5654 19.5161 19.7231 19.88C19.8022 20.0679 19.8427 20.2698 19.8421 20.4737L19.8055 23.5263C19.8055 24.146 19.9261 24.7459 20.1657 25.3091C20.3962 25.857 20.7274 26.347 21.1441 26.7606C21.5677 27.1888 22.0725 27.5282 22.6289 27.7591C23.1852 27.99 23.7821 28.1077 24.3844 28.1053C25.0041 28.1053 25.6024 27.9862 26.1672 27.7451C26.7136 27.5161 27.2051 27.1849 27.6187 26.7667C28.046 26.3423 28.3848 25.8374 28.6157 25.2812C28.8465 24.725 28.9647 24.1285 28.9634 23.5263L29 9.78949C28.9985 9.0227 28.8042 8.26859 28.4351 7.59649C28.066 6.92439 27.5338 6.35586 26.8876 5.94317ZM13.7368 8.26317H3.05263V3.68422H13.7368V8.26317ZM24.4211 11.3158C24.0162 11.3158 23.628 11.155 23.3418 10.8688C23.0555 10.5825 22.8947 10.1943 22.8947 9.78949C22.8947 9.38468 23.0555 8.99646 23.3418 8.71022C23.628 8.42398 24.0162 8.26317 24.4211 8.26317C24.8259 8.26317 25.2141 8.42398 25.5003 8.71022C25.7866 8.99646 25.9474 9.38468 25.9474 9.78949C25.9474 10.1943 25.7866 10.5825 25.5003 10.8688C25.2141 11.155 24.8259 11.3158 24.4211 11.3158Z" fill="#292D32"/>
</svg>
