<svg width="30" height="30" viewBox="0 0 30 30" fill="none" xmlns="http://www.w3.org/2000/svg">
<path d="M25 10C25 9.33696 24.7366 8.70107 24.2678 8.23223C23.7989 7.76339 23.163 7.5 22.5 7.5H5C4.33696 7.5 3.70107 7.76339 3.23223 8.23223C2.76339 8.70107 2.5 9.33696 2.5 10V20C2.5 20.663 2.76339 21.2989 3.23223 21.7678C3.70107 22.2366 4.33696 22.5 5 22.5H22.5C23.163 22.5 23.7989 22.2366 24.2678 21.7678C24.7366 21.2989 25 20.663 25 20V17.5H27.5V12.5H25V10ZM6.25 18.75V11.25H10L15 18.75H6.25Z" fill="#292D32"/>
</svg>
