<svg width="20" height="20" viewBox="0 0 20 20" fill="none" xmlns="http://www.w3.org/2000/svg">
<rect x="6" y="6" width="9" height="9" fill="white"/>
<path d="M10 1.25C12.3206 1.25 14.5462 2.17187 16.1872 3.81282C17.8281 5.45376 18.75 7.67936 18.75 10C18.75 12.3206 17.8281 14.5462 16.1872 16.1872C14.5462 17.8281 12.3206 18.75 10 18.75C7.67936 18.75 5.45376 17.8281 3.81282 16.1872C2.17187 14.5462 1.25 12.3206 1.25 10C1.25 7.67936 2.17187 5.45376 3.81282 3.81282C5.45376 2.17187 7.67936 1.25 10 1.25V1.25ZM10 8.93875L7.9675 6.90625C7.82677 6.76552 7.6359 6.68646 7.43688 6.68646C7.23785 6.68646 7.04698 6.76552 6.90625 6.90625C6.76552 7.04698 6.68646 7.23785 6.68646 7.43688C6.68646 7.6359 6.76552 7.82677 6.90625 7.9675L8.93875 10L6.90625 12.0325C6.83657 12.1022 6.78129 12.1849 6.74358 12.276C6.70587 12.367 6.68646 12.4646 6.68646 12.5631C6.68646 12.6617 6.70587 12.7593 6.74358 12.8503C6.78129 12.9413 6.83657 13.0241 6.90625 13.0938C6.97593 13.1634 7.05866 13.2187 7.1497 13.2564C7.24075 13.2941 7.33833 13.3135 7.43688 13.3135C7.53542 13.3135 7.633 13.2941 7.72405 13.2564C7.81509 13.2187 7.89782 13.1634 7.9675 13.0938L10 11.0612L12.0325 13.0938C12.1022 13.1634 12.1849 13.2187 12.276 13.2564C12.367 13.2941 12.4646 13.3135 12.5631 13.3135C12.6617 13.3135 12.7593 13.2941 12.8503 13.2564C12.9413 13.2187 13.0241 13.1634 13.0938 13.0938C13.1634 13.0241 13.2187 12.9413 13.2564 12.8503C13.2941 12.7593 13.3135 12.6617 13.3135 12.5631C13.3135 12.4646 13.2941 12.367 13.2564 12.276C13.2187 12.1849 13.1634 12.1022 13.0938 12.0325L11.0612 10L13.0938 7.9675C13.1634 7.89782 13.2187 7.81509 13.2564 7.72405C13.2941 7.633 13.3135 7.53542 13.3135 7.43688C13.3135 7.33833 13.2941 7.24075 13.2564 7.1497C13.2187 7.05866 13.1634 6.97593 13.0938 6.90625C13.0241 6.83657 12.9413 6.78129 12.8503 6.74358C12.7593 6.70587 12.6617 6.68646 12.5631 6.68646C12.4646 6.68646 12.367 6.70587 12.276 6.74358C12.1849 6.78129 12.1022 6.83657 12.0325 6.90625L10 8.93875Z" fill="#45454B"/>
</svg>
